<svg width="488" height="414" fill="none" xmlns="http://www.w3.org/2000/svg"><path d="M71.394 173.397c-95.192 54.956-95.192 144.064 0 199.019 95.192 54.955 249.537 54.965 344.719 0 95.182-54.965 95.192-144.063 0-199.019-95.192-54.955-249.537-54.985-344.72 0Z" fill="#F5F5F5"/><path d="M440.408 173.368c-.496.486-1.29 1.161-2.302 1.985-6.342 5.399-21.121 17.954-22.987 35.462l-2.044-.526c-.179-19.185 13.349-38.847 22.659-42.827a.433.433 0 0 0 .264-.401.439.439 0 0 0-.602-.393c-9.389 3.97-23.284 23.265-23.185 43.403l-1.379-.357c-.517-1.747-3.554-13.896 4.893-29.925a56.69 56.69 0 0 1 4.863-7.652l.089-.099c5.876-7.653 12.833-12.02 17.607-10.461a6.418 6.418 0 0 1 4.576 4.605 7.668 7.668 0 0 1-2.452 7.186Z" fill="#fff"/><path d="M429.54 155.423c-3.821 5.479-7.781 11.146-9.617 16.218a54.207 54.207 0 0 0-4.963 7.791 52.22 52.22 0 0 0-5.101 14.113c-.774-29.15 15.215-52.007 20.098-56.086a.419.419 0 0 0 .132-.459.44.44 0 0 0-.688-.206c-5.2 4.327-22.738 29.517-20.187 60.97a.069.069 0 0 0 0 .049 34.327 34.327 0 0 0 .635 11.652l-2.412-.734c-.645-2.184-5.667-20.674-1.538-45.169 2.193-13.092 9.776-25.806 18.034-30.312 3.821-2.064 7.563-2.332 11.126-.784a5.644 5.644 0 0 1 3.533 3.563c1.3 4.556-3.732 11.762-9.052 19.394Z" fill="#fff"/><path d="M443.704 166.053a7.372 7.372 0 0 0-5.151-5.241c-4.586-1.498-10.988 1.985-16.704 8.496a52.64 52.64 0 0 0-1.926 2.353 54.114 54.114 0 0 0-4.962 7.791 52.189 52.189 0 0 0-5.102 14.113 49.003 49.003 0 0 0-.635 4.268 34.352 34.352 0 0 0 .635 11.652c.119.496.208.774.218.794a.43.43 0 0 0 .209.229h.079l2.084.535 2.918.745a.323.323 0 0 0 .169 0 .497.497 0 0 0 .189-.07.435.435 0 0 0 .178-.307c1.598-17.419 16.417-30.014 22.749-35.393.992-.864 1.826-1.549 2.342-2.065a8.529 8.529 0 0 0 2.71-7.9Zm-3.295 7.335c-.497.486-1.291 1.161-2.303 1.985-6.342 5.399-21.121 17.954-22.987 35.462l-2.044-.526-.864-.218-1.379-.358c-.516-1.746-3.554-13.895 4.893-29.924a56.69 56.69 0 0 1 4.863-7.652l.089-.099c5.876-7.653 12.834-12.02 17.608-10.461a6.413 6.413 0 0 1 4.575 4.605 7.67 7.67 0 0 1-2.451 7.166v.02Z" fill="#6D55F1"/><path d="M435.736 167.502c-9.31 3.97-22.828 23.642-22.659 42.827v.387a.42.42 0 0 1-.358.427h-.248a.445.445 0 0 1-.248-.387v-.566c-.099-20.138 13.796-39.413 23.185-43.403a.439.439 0 0 1 .566.229.425.425 0 0 1-.238.486Z" fill="#6D55F1"/><path d="M430.246 155.919a105.212 105.212 0 0 0-8.397 13.369 31.232 31.232 0 0 0-1.141 2.73s-.397.318-.556.258a.44.44 0 0 1-.258-.556v-.079c1.836-5.072 5.796-10.739 9.618-16.218 5.32-7.632 10.352-14.838 9.061-19.394a5.64 5.64 0 0 0-3.533-3.563c-3.563-1.548-7.305-1.28-11.126.784-8.258 4.477-15.88 17.22-18.034 30.312-4.129 24.495.893 42.985 1.538 45.169l2.412.734.754.229a.435.435 0 0 1 .288.546.438.438 0 0 1-.347.297.403.403 0 0 1-.189 0h-.079l-3.315-.992a.435.435 0 0 1-.288-.288c-.059-.189-6.044-19.632-1.638-45.795 2.253-13.329 10.015-26.341 18.481-30.926 4.069-2.204 8.069-2.481 11.91-.814a6.488 6.488 0 0 1 3.97 4.109c1.449 4.913-3.682 12.287-9.131 20.088Z" fill="#6D55F1"/><path d="M429.957 137.459c-4.883 4.079-20.842 26.936-20.098 56.086 0 1.37.109 2.76.218 4.149a.428.428 0 0 1-.357.467.44.44 0 0 1-.456-.358.069.069 0 0 1 0-.049c-2.551-31.453 14.987-56.643 20.187-60.97a.437.437 0 0 1 .606.059.436.436 0 0 1 .084.329.437.437 0 0 1-.184.287Z" fill="#6D55F1"/><path d="m270.891 30.228-9.27 5.35c0-.418.079-.825.079-1.231v-2.68c0-4.774-3.355-6.71-7.493-4.318a14.488 14.488 0 0 0-4.457 4.288c-.675-5.955-5.389-8.238-11.106-4.963-6.183 3.564-11.195 12.248-11.195 19.394v3.97a10.632 10.632 0 0 0 .942 4.655l-7.682 4.437a9.16 9.16 0 0 0-4.158 7.185c0 2.65 1.856 3.722 4.158 2.402l50.172-28.971a9.158 9.158 0 0 0 4.149-7.186c.01-2.58-1.846-3.652-4.139-2.332Zm56.703 5.806-6.947 4.03c0-.308.059-.616.059-.924v-1.985c0-3.602-2.531-5.061-5.647-3.255a10.87 10.87 0 0 0-3.375 3.236c-.506-4.536-4.059-6.224-8.376-3.722-4.665 2.69-8.457 9.24-8.457 14.63v2.977a7.842 7.842 0 0 0 .725 3.513l-5.846 3.335a6.882 6.882 0 0 0-3.136 5.42c0 1.984 1.399 2.808 3.136 1.816l37.864-21.836a6.949 6.949 0 0 0 3.137-5.429c0-2.015-1.41-2.799-3.137-1.806Z" fill="#EBEBEB"/><path d="m271.539 340.983-7.424-4.288 5.4-3.116a5.743 5.743 0 0 0 2.357-8.206 5.74 5.74 0 0 0-2.357-2.116l-13.439-7.762a11.323 11.323 0 0 0-10.531 0l-9.071 5.241-46.867-27.066a10.536 10.536 0 0 0-5.26-1.3 10.42 10.42 0 0 0-5.27 1.3l-19.156 11.067a9.493 9.493 0 0 0-3.434 2.977 6.83 6.83 0 0 0-.734 4.963l9.925 49.625c.576 2.491 2.442 4.665 5.548 6.461l13.409 7.702a10.316 10.316 0 0 0 5.25 1.301 10.33 10.33 0 0 0 5.231-1.301l38.122-22.004 11.097 6.402a11.356 11.356 0 0 0 10.53 0l16.674-9.558a5.726 5.726 0 0 0 0-10.322Zm-73.823 2.124-2.223-11.176 10.789 6.233-8.566 4.943Zm-139.279-5.995a100.242 100.242 0 0 1 21.746 11.097c7.603 5.141 14.56 11.384 22.63 15.622 10.54 5.548 22.669 7.553 34.539 6.947 6.719-.327 14.034-1.796 18.362-7.096a8.042 8.042 0 0 0 1.985-4.774c0-2.581-1.718-4.804-3.544-6.59-9.657-9.469-23.304-13.38-36.455-16.446-13.15-3.067-21.021-6.878-33.914-13.767-5.518-2.977-10.918-6.123-16.515-8.932l-.14-.07a87.036 87.036 0 0 0-8.446-4.049c-3.8-1.4-6.947-2.422-11.155-2.104-4.209.317-8.933.248-11.831 3.652a9.757 9.757 0 0 0-1.31 10.461c4.089 9.429 15.255 12.843 24.048 16.049Zm287.729-73.346a313.975 313.975 0 0 0-11.047-6.67c-3.97-2.293-7.94-4.456-11.821-6.521a85.22 85.22 0 0 0-16.436-6.362 73.571 73.571 0 0 0-18.629-2.58h-.814a80.557 80.557 0 0 0-18.858 2.342 76.618 76.618 0 0 0-20.128 8.228c-6.839 3.97-11.652 7.94-14.699 12.079-3.186 4.377-4.725 8.803-4.576 13.17a20.511 20.511 0 0 0 5.092 12.427 49.372 49.372 0 0 0 11.394 9.845 321.538 321.538 0 0 0 11.295 6.819 355.059 355.059 0 0 0 11.562 6.382 85.793 85.793 0 0 0 16.446 6.352 73 73 0 0 0 18.62 2.58h.873a80.234 80.234 0 0 0 18.858-2.342 76.488 76.488 0 0 0 20.128-8.228c6.849-3.97 11.662-7.94 14.699-12.079 3.196-4.367 4.735-8.803 4.576-13.17a20.477 20.477 0 0 0-5.092-12.427 49.718 49.718 0 0 0-11.443-9.845Zm-22.828 26.281c-.348.526-1.31 1.628-3.97 3.157a22.697 22.697 0 0 1-6.432 2.6c-1.61.355-3.254.538-4.903.546h-1.31a23.133 23.133 0 0 1-5.955-1.171 41.779 41.779 0 0 1-6.154-2.68 233.371 233.371 0 0 1-21.041-12.158 22.225 22.225 0 0 1-4.248-3.305 5.044 5.044 0 0 1-1.399-2.234c0-.119-.109-.506.427-1.33.347-.516 1.31-1.617 3.97-3.156a22.384 22.384 0 0 1 6.431-2.59 21.973 21.973 0 0 1 4.685-.526c.486 0 .992 0 1.419.049 2.028.15 4.03.557 5.955 1.211a51.335 51.335 0 0 1 6.263 2.591 297.893 297.893 0 0 1 21.111 12.118 26.184 26.184 0 0 1 4.377 3.345 4.257 4.257 0 0 1 1.32 2.054c-.02.149.059.556-.526 1.479h-.02ZM456.8 234.01l-7.424-4.288 5.4-3.116a5.734 5.734 0 0 0 2.357-8.206 5.727 5.727 0 0 0-2.357-2.116l-13.449-7.762a11.323 11.323 0 0 0-10.53 0l-9.072 5.231-46.866-27.056a11.313 11.313 0 0 0-10.531 0l-19.145 11.057a9.446 9.446 0 0 0-3.444 2.977 6.806 6.806 0 0 0-.735 4.963l9.925 49.625c.576 2.492 2.442 4.665 5.548 6.462l13.449 7.761a10.325 10.325 0 0 0 5.25 1.3 10.325 10.325 0 0 0 5.261-1.3l38.122-22.014 11.096 6.412a11.324 11.324 0 0 0 10.531 0l16.605-9.588a5.723 5.723 0 0 0 3.244-5.161 5.725 5.725 0 0 0-3.244-5.161l.009-.02Zm-73.823 2.114-2.263-11.166 10.789 6.223-8.526 4.943Z" fill="#E0E0E0"/><path d="M349.444 339.742a1.993 1.993 0 0 1 1.678 0l3.285 1.906a.539.539 0 0 1 .337.477.559.559 0 0 1-.1.29.56.56 0 0 1-.237.196l-14.689 8.486a1.882 1.882 0 0 1-1.678 0l-20.029-11.563a.6.6 0 0 1-.347-.486.606.606 0 0 1 .347-.487l14.451-8.337a1.846 1.846 0 0 1 1.668 0l3.285 1.896a.57.57 0 0 1 .347.486.588.588 0 0 1-.347.487l-9.548 5.508 3.355 1.935 8.863-5.121a1.875 1.875 0 0 1 1.677 0l3.285 1.896a.566.566 0 0 1 .338.486.571.571 0 0 1-.338.486l-8.873 5.112 3.474 1.985 9.796-5.638Zm4.902-15.681a1.882 1.882 0 0 1 1.678 0l3.126 1.806a.568.568 0 0 1 .338.486.572.572 0 0 1-.338.487l-2.818 1.628c-1.906 1.091-1.906 2.193 0 3.285l7.622 4.407a.567.567 0 0 1 .347.486.58.58 0 0 1-.347.486l-3.901 2.253a1.874 1.874 0 0 1-1.677 0l-14.451-8.347a.516.516 0 0 1 0-.992l3.603-2.075a1.843 1.843 0 0 1 1.667 0l.715.407c.043-.592.253-1.16.605-1.637a6.079 6.079 0 0 1 1.985-1.638l1.846-1.042Zm15.007-8.665c.255-.138.543-.206.833-.198a1.7 1.7 0 0 1 .844.198l3.126 1.807a.566.566 0 0 1 .338.486.573.573 0 0 1-.338.486l-2.818 1.628c-1.906 1.092-1.906 2.19 0 3.295l7.622 4.397a.541.541 0 0 1 .338.486.573.573 0 0 1-.338.487l-3.9 2.253a1.88 1.88 0 0 1-1.678 0l-14.451-8.348a.549.549 0 0 1-.337-.476.565.565 0 0 1 .337-.486l3.603-2.075a1.65 1.65 0 0 1 .834-.198c.29-.008.578.061.833.198l.715.407a3.144 3.144 0 0 1 .605-1.637 6.072 6.072 0 0 1 1.986-1.638l1.846-1.072Zm26.658-7.414c.338.169.745.387 1.231.665.486.278.863.516 1.161.715a6.39 6.39 0 0 1 2.104 1.985 3.66 3.66 0 0 1 .576 2.292 4.516 4.516 0 0 1-1.082 2.402 10.406 10.406 0 0 1-2.868 2.303 16.728 16.728 0 0 1-3.97 1.657 18.317 18.317 0 0 1-4.149.626 17.015 17.015 0 0 1-3.97-.338 12.86 12.86 0 0 1-3.474-1.211 34.038 34.038 0 0 1-1.221-.675 22.814 22.814 0 0 1-1.161-.704 6.254 6.254 0 0 1-2.144-1.985 3.68 3.68 0 0 1-.555-2.313 4.643 4.643 0 0 1 1.091-2.412 9.694 9.694 0 0 1 2.849-2.312 16.217 16.217 0 0 1 3.97-1.648 19.311 19.311 0 0 1 4.188-.625 16.38 16.38 0 0 1 3.97.327 12.83 12.83 0 0 1 3.454 1.251Zm-9.051 7.801a5.63 5.63 0 0 0 2.699.576 5.785 5.785 0 0 0 2.67-.774c.824-.477 1.27-.993 1.33-1.539.06-.546-.268-1.062-.992-1.558-.319-.234-.65-.449-.993-.645a12.019 12.019 0 0 0-1.122-.566 5.456 5.456 0 0 0-2.689-.575 5.718 5.718 0 0 0-2.67.764c-.824.486-1.27.992-1.33 1.548-.06.556.268 1.062.992 1.558.317.234.648.446.993.636.359.204.73.387 1.112.545v.03Zm17.112-20.436a1.879 1.879 0 0 1 1.677 0l3.137 1.807a.584.584 0 0 1 .236.196.582.582 0 0 1 .101.29.565.565 0 0 1-.337.486l-2.829 1.628c-1.892 1.092-1.892 2.19 0 3.295l7.632 4.397a.572.572 0 0 1 .338.486.571.571 0 0 1-.338.487l-3.91 2.253a1.67 1.67 0 0 1-.834.198c-.29.009-.578-.06-.833-.198l-14.491-8.337a.586.586 0 0 1-.348-.487.575.575 0 0 1 .348-.486l3.593-2.074c.26-.131.547-.198.838-.198.292 0 .579.067.839.198l.715.407a3.071 3.071 0 0 1 .605-1.638 5.967 5.967 0 0 1 1.985-1.638l1.876-1.072Z" fill="#455A64"/><path d="m268.211 331.386-16.615 9.587a7.588 7.588 0 0 1-6.838 0l-12.903-7.464-39.998 23.106a7.71 7.71 0 0 1-6.858 0l-13.439-7.771c-2.203-1.257-3.473-2.624-3.811-4.099l-9.925-49.507a4.746 4.746 0 0 1-.07-.883v13.895c.006.256.029.512.07.764l9.925 49.507c.338 1.469 1.608 2.835 3.811 4.099l13.439 7.761a7.633 7.633 0 0 0 6.858 0l39.988-23.076 12.903 7.464a7.594 7.594 0 0 0 6.839 0l16.614-9.588a2.327 2.327 0 0 0 1.4-1.985V329.4a2.338 2.338 0 0 1-1.39 1.986Zm-.636-5.906v-13.796a2.366 2.366 0 0 1-1.4 1.985l-10.917 6.293 11.781 6.798c.327-.348.517-.803.536-1.28Z" fill="#6D55F1"/><path d="m191.925 323.535 8.268 4.794 11.959-6.898-23.343-13.489 3.106 15.593h.01Z" fill="#6D55F1"/><path opacity=".35" d="m191.925 323.535 8.268 4.794 11.959-6.898-23.343-13.489 3.106 15.593h.01Z" fill="#000"/><path opacity=".2" d="M267.575 325.48v-13.796a2.366 2.366 0 0 1-1.4 1.985l-10.917 6.293 11.781 6.798c.327-.348.517-.803.536-1.28Zm.636 5.906-16.615 9.587a6.65 6.65 0 0 1-3.424.814v13.836a6.65 6.65 0 0 0 3.424-.814l16.615-9.588a2.319 2.319 0 0 0 1.399-1.985V329.44a2.334 2.334 0 0 1-1.399 1.946Z" fill="#000"/><path opacity=".25" d="m167.749 344.705-9.925-49.506a4.764 4.764 0 0 1-.07-.884v13.895c.006.256.029.512.07.765l9.925 49.506c.067.29.171.57.308.834v-13.796a3.544 3.544 0 0 1-.308-.814Z" fill="#000"/><path opacity=".35" d="M188.435 357.389a6.943 6.943 0 0 1-3.434-.804l-13.439-7.771a8.118 8.118 0 0 1-3.503-3.265v13.796a8.118 8.118 0 0 0 3.503 3.265l13.439 7.761a6.815 6.815 0 0 0 3.434.814c.125.015.252.015.377 0v-13.796a1.585 1.585 0 0 1-.377 0Z" fill="#000"/><path opacity=".2" d="M191.856 356.615a6.433 6.433 0 0 1-3.047.774v13.796a6.32 6.32 0 0 0 3.047-.784l39.988-23.096v-13.796l-39.988 23.106Z" fill="#000"/><path opacity=".35" d="m244.746 340.973-12.902-7.464v13.796l12.902 7.464a6.596 6.596 0 0 0 3.415.814v-13.796a6.596 6.596 0 0 1-3.415-.814Z" fill="#000"/><path d="M251.597 340.973a7.612 7.612 0 0 1-6.849 0l-12.902-7.463-39.988 23.105a7.692 7.692 0 0 1-6.849 0l-13.448-7.761c-2.19-1.271-3.458-2.637-3.802-4.099l-9.925-49.507a3.221 3.221 0 0 1 .248-2.273 6.377 6.377 0 0 1 2.164-1.756l19.146-11.057a6.786 6.786 0 0 1 3.434-.804 6.715 6.715 0 0 1 3.414.804l48.712 28.118 10.918-6.293a7.61 7.61 0 0 1 6.848 0l13.449 7.762a2.094 2.094 0 0 1 0 3.97l-10.918 6.302 12.903 7.464a2.1 2.1 0 0 1 1.406 1.985 2.1 2.1 0 0 1-1.406 1.985l-16.555 9.518Zm-39.453-19.552-23.333-13.439 4.823 24.168 18.51-10.729Zm145.372-51.283c-.06 3.325-1.37 6.719-3.891 10.173-2.7 3.712-7.222 7.397-13.568 11.056a72.703 72.703 0 0 1-19.155 7.841 75.563 75.563 0 0 1-18.858 2.233 69.403 69.403 0 0 1-17.686-2.451 81.075 81.075 0 0 1-15.742-6.084 282.095 282.095 0 0 1-11.414-6.303c-3.989-2.332-7.691-4.525-11.155-6.729a45.313 45.313 0 0 1-10.521-9.081 16.716 16.716 0 0 1-4.248-10.213c.07 2.183-.089 11.374 0 13.796a16.719 16.719 0 0 0 4.248 10.213 45.336 45.336 0 0 0 10.521 9.081 284.263 284.263 0 0 0 11.155 6.729 341.76 341.76 0 0 0 11.414 6.313 81.682 81.682 0 0 0 15.742 6.074 69.403 69.403 0 0 0 17.686 2.451 75.563 75.563 0 0 0 18.858-2.233 72.703 72.703 0 0 0 19.155-7.841c6.352-3.665 10.875-7.351 13.568-11.056 2.71-3.702 3.97-7.335 3.871-10.868-.07-2.055.059-9.995.02-13.101Z" fill="#6D55F1"/><path opacity=".35" d="M305.452 301.372c-1.131 0-2.263.089-3.384.069a69.405 69.405 0 0 1-17.687-2.451 81.066 81.066 0 0 1-15.741-6.084 281.418 281.418 0 0 1-11.414-6.303c-3.99-2.332-7.692-4.525-11.156-6.729a45.333 45.333 0 0 1-10.521-9.081 16.716 16.716 0 0 1-4.248-10.213c.07 2.183-.089 11.374 0 13.796a16.719 16.719 0 0 0 4.248 10.213 45.357 45.357 0 0 0 10.521 9.081 284.328 284.328 0 0 0 11.156 6.729 339.78 339.78 0 0 0 11.414 6.313 81.648 81.648 0 0 0 15.741 6.074 69.405 69.405 0 0 0 17.687 2.451c1.121 0 2.253 0 3.384-.069v-13.796Z" fill="#000"/><path opacity=".2" d="M357.518 270.138c-.059 3.325-1.369 6.719-3.89 10.173-2.7 3.712-7.223 7.397-13.568 11.056a72.71 72.71 0 0 1-19.156 7.841 77.08 77.08 0 0 1-15.443 2.164v13.796a77.827 77.827 0 0 0 15.443-2.164 72.71 72.71 0 0 0 19.156-7.841c6.352-3.665 10.875-7.351 13.568-11.056 2.709-3.702 3.97-7.335 3.87-10.868-.069-2.055.06-9.995.02-13.101Z" fill="#000"/><path d="M265.222 262.813a21.62 21.62 0 0 0 2.472 2.173c.427-.277.853-.555 1.33-.833a26.796 26.796 0 0 1 7.483-2.978 25.042 25.042 0 0 1 7.176-.536c2.335.17 4.639.634 6.858 1.38a59.496 59.496 0 0 1 6.809 2.789 308.337 308.337 0 0 1 21.309 12.317 38.088 38.088 0 0 1 2.472 1.687 12.902 12.902 0 0 0 3.861-3.484 5.615 5.615 0 0 0 .992-4.178 7.777 7.777 0 0 0-2.342-3.97 29.316 29.316 0 0 0-5.012-3.831 299.6 299.6 0 0 0-21.28-12.337 59.445 59.445 0 0 0-6.779-2.819 27.825 27.825 0 0 0-6.858-1.379 24.69 24.69 0 0 0-7.176.545 26.437 26.437 0 0 0-7.483 2.978 15.344 15.344 0 0 0-5.191 4.317 5.338 5.338 0 0 0-.993 4.139 8.843 8.843 0 0 0 2.352 4.02Z" fill="#6D55F1"/><path opacity=".35" d="M265.222 262.813a21.62 21.62 0 0 0 2.472 2.173c.427-.277.853-.555 1.33-.833a26.796 26.796 0 0 1 7.483-2.978 25.042 25.042 0 0 1 7.176-.536c2.335.17 4.639.634 6.858 1.38a59.496 59.496 0 0 1 6.809 2.789 308.337 308.337 0 0 1 21.309 12.317 38.088 38.088 0 0 1 2.472 1.687 12.902 12.902 0 0 0 3.861-3.484 5.615 5.615 0 0 0 .992-4.178 7.777 7.777 0 0 0-2.342-3.97 29.316 29.316 0 0 0-5.012-3.831 299.6 299.6 0 0 0-21.28-12.337 59.445 59.445 0 0 0-6.779-2.819 27.825 27.825 0 0 0-6.858-1.379 24.69 24.69 0 0 0-7.176.545 26.437 26.437 0 0 0-7.483 2.978 15.344 15.344 0 0 0-5.191 4.317 5.338 5.338 0 0 0-.993 4.139 8.843 8.843 0 0 0 2.352 4.02Z" fill="#000"/><path d="M248.718 238.645a72.466 72.466 0 0 1 19.156-7.841 76.082 76.082 0 0 1 18.857-2.233c5.98.057 11.927.881 17.697 2.452a81.488 81.488 0 0 1 15.751 6.084 295.308 295.308 0 0 1 11.672 6.441 344.592 344.592 0 0 1 10.918 6.591 45.51 45.51 0 0 1 10.52 9.081 16.873 16.873 0 0 1 4.258 10.213c.126 3.54-1.164 7.179-3.871 10.918-2.706 3.738-7.255 7.41-13.647 11.016a72.703 72.703 0 0 1-19.155 7.841 75.99 75.99 0 0 1-18.858 2.233 69.351 69.351 0 0 1-17.696-2.461 80.912 80.912 0 0 1-15.732-6.074 333.452 333.452 0 0 1-11.414-6.293 297.782 297.782 0 0 1-11.165-6.739 45.762 45.762 0 0 1-10.521-9.081 16.877 16.877 0 0 1-4.258-10.223c-.119-3.534 1.171-7.173 3.871-10.918 2.7-3.745 7.239-7.414 13.617-11.007Zm69.913 24.674a305.761 305.761 0 0 0-21.309-12.297 58.094 58.094 0 0 0-6.789-2.829 28.19 28.19 0 0 0-6.849-1.389 25 25 0 0 0-7.175.555 26.455 26.455 0 0 0-7.484 2.978 15.354 15.354 0 0 0-5.191 4.317 5.296 5.296 0 0 0-.992 4.139 8.491 8.491 0 0 0 2.342 3.97 26.146 26.146 0 0 0 4.963 3.881 235.941 235.941 0 0 0 21.309 12.297 44.743 44.743 0 0 0 6.66 2.898 25.792 25.792 0 0 0 21.616-2.233 15.186 15.186 0 0 0 5.201-4.327 5.608 5.608 0 0 0 .993-4.169 7.704 7.704 0 0 0-2.352-3.97 28.868 28.868 0 0 0-4.943-3.821Zm134.865-38.906L436.881 234a7.594 7.594 0 0 1-6.838 0l-12.903-7.473-39.959 23.076a7.624 7.624 0 0 1-6.848 0l-13.449-7.762c-2.203-1.26-3.463-2.63-3.811-4.099l-9.925-49.506a4.763 4.763 0 0 1-.069-.884v13.895c.005.256.028.512.069.765l9.925 49.496c.348 1.479 1.608 2.839 3.811 4.109l13.449 7.762a7.61 7.61 0 0 0 6.848 0l39.959-23.076 12.903 7.473a7.588 7.588 0 0 0 6.838 0l16.615-9.587a2.33 2.33 0 0 0 1.399-1.985v-13.776a2.331 2.331 0 0 1-1.399 1.985Zm-.628-5.916v-13.796a2.363 2.363 0 0 1-1.4 1.985l-10.917 6.293 11.781 6.789c.331-.342.522-.795.536-1.271Z" fill="#6D55F1"/><path d="m377.21 216.562 8.268 4.794 11.96-6.898-23.344-13.489 3.106 15.593h.01Z" fill="#6D55F1"/><path opacity=".35" d="m377.21 216.562 8.268 4.794 11.96-6.898-23.344-13.489 3.106 15.593h.01Z" fill="#000"/><path opacity=".2" d="M452.868 218.497v-13.796a2.363 2.363 0 0 1-1.4 1.985l-10.917 6.293 11.781 6.789c.331-.342.522-.795.536-1.271Zm.628 5.916L436.881 234a6.648 6.648 0 0 1-3.424.814v13.796a6.648 6.648 0 0 0 3.424-.814l16.615-9.587a2.328 2.328 0 0 0 1.399-1.985v-13.796a2.331 2.331 0 0 1-1.399 1.985Z" fill="#000"/><path opacity=".25" d="m353.03 237.742-9.925-49.506a4.763 4.763 0 0 1-.069-.884v13.895c.005.256.029.512.069.765l9.925 49.496c.065.295.172.579.318.844v-13.796a3.181 3.181 0 0 1-.318-.814Z" fill="#000"/><path opacity=".35" d="M373.714 250.416a6.778 6.778 0 0 1-3.424-.813l-13.449-7.762a8.027 8.027 0 0 1-3.493-3.265v13.825a8.035 8.035 0 0 0 3.493 3.266l13.449 7.761a6.779 6.779 0 0 0 3.424.814c.125.015.252.015.377 0v-13.826a1.585 1.585 0 0 1-.377 0Z" fill="#000"/><path opacity=".2" d="M377.141 249.603a6.295 6.295 0 0 1-3.047.784v13.796a6.296 6.296 0 0 0 3.047-.785l39.958-23.075v-13.796l-39.958 23.076Z" fill="#000"/><path opacity=".35" d="m430.039 234-12.902-7.473v13.796l12.902 7.473a6.596 6.596 0 0 0 3.415.814v-13.796a6.596 6.596 0 0 1-3.415-.814Z" fill="#000"/><path d="M436.89 234a6.683 6.683 0 0 1-3.434.804 6.775 6.775 0 0 1-3.424-.804l-12.903-7.463-39.958 23.066a7.704 7.704 0 0 1-6.849 0l-13.448-7.762c-2.19-1.27-3.457-2.637-3.801-4.099l-9.925-49.506a3.265 3.265 0 0 1 .248-2.273 6.377 6.377 0 0 1 2.163-1.757l19.146-11.057a7.632 7.632 0 0 1 6.858 0l48.703 28.118 10.917-6.302a7.69 7.69 0 0 1 6.849 0l13.438 7.811a2.09 2.09 0 0 1 1.427 1.985 2.095 2.095 0 0 1-1.427 1.985l-10.917 6.302 12.902 7.464a2.106 2.106 0 0 1 0 3.97L436.89 234Zm-39.452-19.552-23.344-13.469 4.824 24.158 18.52-10.689Zm-92.898-48.931c.863-4.03-15.583 5.469-16.446 9.498l5.28 14.263c.192.412.503.758.893.992 1.161.715 5.449 3.136 5.816 3.365a2.304 2.304 0 0 0 3.395-1.261l6.868-23.552c.437-1.935-5.806-3.305-5.806-3.305Z" fill="#6D55F1"/><path opacity=".25" d="M304.54 165.517c.863-4.03-15.583 5.469-16.446 9.498l5.28 14.263c.192.412.503.758.893.992 1.161.715 5.449 3.136 5.816 3.365a2.304 2.304 0 0 0 3.395-1.261l6.868-23.552c.437-1.935-5.806-3.305-5.806-3.305Z" fill="#000"/><path d="m355.983 58.623-137.235 79.173a4.887 4.887 0 0 0-2.213 3.821v75.431a4.883 4.883 0 0 0 2.213 3.821l1.38.784a4.87 4.87 0 0 0 4.417 0l137.244-79.262a4.875 4.875 0 0 0 2.204-3.831V63.219a4.861 4.861 0 0 0-2.204-3.822l-1.379-.784a4.907 4.907 0 0 0-4.427.01Z" fill="#6D55F1"/><path opacity=".25" d="m355.983 58.623-137.235 79.173a4.887 4.887 0 0 0-2.213 3.821v75.431a4.883 4.883 0 0 0 2.213 3.821l1.38.784a4.87 4.87 0 0 0 4.417 0l137.244-79.262a4.875 4.875 0 0 0 2.204-3.831V63.219a4.861 4.861 0 0 0-2.204-3.822l-1.379-.784a4.907 4.907 0 0 0-4.427.01Z" fill="#000"/><path d="M364.002 63.219v.863a2.047 2.047 0 0 0-3.067-1.757l-135.557 78.32a5.871 5.871 0 0 0-2.224 2.213v.069l-5.955-3.444a4.547 4.547 0 0 1 1.588-1.677l137.235-79.183a4.961 4.961 0 0 1 4.417 0l1.379.784a4.885 4.885 0 0 1 2.184 3.811Z" fill="#6D55F1"/><path opacity=".45" d="M364.002 63.219v.863a2.047 2.047 0 0 0-3.067-1.757l-135.557 78.32a5.871 5.871 0 0 0-2.224 2.213v.069l-5.955-3.444a4.547 4.547 0 0 1 1.588-1.677l137.235-79.183a4.961 4.961 0 0 1 4.417 0l1.379.784a4.885 4.885 0 0 1 2.184 3.811Z" fill="#fff"/><path d="M361.959 62.832c-.216 0-.428.059-.615.168l-135.567 78.33a5.28 5.28 0 0 0-2.64 4.566v73.525c0 .417.089 1.39.893 1.39.353-.016.696-.125.993-.318l70.339-40.613 4.397 12.198a2.293 2.293 0 0 0 4.277-.219l5.955-20.426 50.619-29.219c1.836-1.052 2.65-2.124 2.65-3.464V64.082a1.246 1.246 0 0 0-1.301-1.25Z" fill="#fff"/><path d="M224.029 221.633c-.993 0-1.677-.853-1.677-2.173v-73.565a6.086 6.086 0 0 1 3.027-5.25l135.567-78.31c.301-.178.643-.274.992-.278a2.033 2.033 0 0 1 1.985 1.986v74.666c0 2.144-1.746 3.395-3.047 4.149l-50.231 29.15-5.865 20.118a3.074 3.074 0 0 1-4.561 1.715 3.086 3.086 0 0 1-1.206-1.397l-4.099-11.355-69.525 40.088a2.716 2.716 0 0 1-1.36.456ZM361.988 63.675a.484.484 0 0 0-.228.06l-135.557 78.309a4.493 4.493 0 0 0-2.253 3.891v73.525a1.08 1.08 0 0 0 .129.615c.195-.044.382-.118.555-.218l71.154-41.09 4.694 13.091a1.47 1.47 0 0 0 1.429.854 1.503 1.503 0 0 0 1.36-1.042l6.035-20.714.268-.159 50.618-29.22c1.985-1.141 2.263-2.044 2.263-2.779V64.082a.473.473 0 0 0-.152-.331.452.452 0 0 0-.345-.115l.03.04Z" fill="#6D55F1"/><path d="M238.482 165.06c.087-2.393.419-4.771.992-7.096a32.296 32.296 0 0 1 2.452-6.739 28.43 28.43 0 0 1 3.861-5.816 20.41 20.41 0 0 1 5.24-4.358 10.694 10.694 0 0 1 5.231-1.677 5.743 5.743 0 0 1 3.87 1.35 8.492 8.492 0 0 1 2.452 3.901c.616 1.926.951 3.932.992 5.955.06 1.746.09 3.583.09 5.528 0 1.945 0 3.761-.09 5.488a35.185 35.185 0 0 1-.992 7.097 32.106 32.106 0 0 1-2.452 6.759 26.987 26.987 0 0 1-3.87 5.836 20.425 20.425 0 0 1-5.231 4.307 10.759 10.759 0 0 1-5.24 1.727 5.655 5.655 0 0 1-3.861-1.359 8.797 8.797 0 0 1-2.452-3.97 21.102 21.102 0 0 1-.992-5.955c-.05-1.658-.08-3.454-.08-5.39 0-1.935.03-3.801.08-5.588Zm17.637.516c0-.754.059-1.598.089-2.521.03-.923 0-1.856 0-2.808v-2.73c0-.873-.06-1.647-.089-2.332-.03-.881-.17-1.755-.417-2.601a3.973 3.973 0 0 0-.993-1.707 2.27 2.27 0 0 0-1.548-.625 4.315 4.315 0 0 0-2.174.705 8.235 8.235 0 0 0-2.163 1.806 10.922 10.922 0 0 0-1.549 2.412 13.635 13.635 0 0 0-.992 2.809 18.57 18.57 0 0 0-.427 3.096c-.05.725-.089 1.539-.099 2.432-.01.893 0 1.816 0 2.769v2.769c0 .893 0 1.707.099 2.422a6.876 6.876 0 0 0 1.39 4.327c.813.894 2.051.86 3.712-.099a8.753 8.753 0 0 0 3.702-4.178 17.197 17.197 0 0 0 1.459-5.965v.019Zm32.633-20.832v4.764a27.054 27.054 0 0 1-.884 6.074 28.712 28.712 0 0 1-2.213 5.826 24.015 24.015 0 0 1-3.394 5.022 17.788 17.788 0 0 1-4.437 3.672 9.379 9.379 0 0 1-4.446 1.449 5.035 5.035 0 0 1-3.395-1.101 7.402 7.402 0 0 1-2.203-3.266 15.787 15.787 0 0 1-.893-5.062v-4.764c.04-2.044.323-4.076.843-6.054a28.565 28.565 0 0 1 2.234-5.836 25.87 25.87 0 0 1 3.414-5.062 17.412 17.412 0 0 1 4.446-3.712 9.15 9.15 0 0 1 4.437-1.409 5.372 5.372 0 0 1 3.414 1.122 7.234 7.234 0 0 1 2.213 3.275c.552 1.631.843 3.34.864 5.062Zm-14.63 12.902c.08 1.529.447 2.541 1.102 3.047.655.506 1.528.447 2.6-.168a6.673 6.673 0 0 0 2.591-2.829 10.346 10.346 0 0 0 1.101-4.318c.05-.645.08-1.359.08-2.143 0-.784 0-1.469-.08-2.065-.079-1.515-.446-2.527-1.101-3.037-.655-.506-1.519-.456-2.591.169a6.793 6.793 0 0 0-2.6 2.819 10.441 10.441 0 0 0-1.102 4.327c-.049.645-.079 1.36-.079 2.144s.03 1.459.079 2.044v.01Zm31.028-3.315a6.304 6.304 0 0 1-2.055.814 3.677 3.677 0 0 1-1.528 0c-.4-.112-.77-.312-1.082-.585a4.389 4.389 0 0 1-.725-.785v13.181a3.267 3.267 0 0 1-.317 1.36 1.985 1.985 0 0 1-.764.933l-5.062 2.977a.584.584 0 0 1-.764-.059 1.306 1.306 0 0 1-.328-.993v-40.683c.006-.472.118-.937.328-1.36.151-.382.418-.708.764-.933l4.863-2.808a.583.583 0 0 1 .764.059 1.347 1.347 0 0 1 .318.993v1.429c.238-.556.506-1.141.784-1.757.288-.634.637-1.239 1.042-1.806a12.1 12.1 0 0 1 1.529-1.747 11.56 11.56 0 0 1 2.233-1.628 7.935 7.935 0 0 1 3.414-1.141 3.765 3.765 0 0 1 1.507.205c.483.171.926.439 1.302.787a7.503 7.503 0 0 1 1.985 3.296c.553 1.895.831 3.861.824 5.835v5.013a32.25 32.25 0 0 1-.824 6.779 27.346 27.346 0 0 1-1.985 5.548 18.57 18.57 0 0 1-2.809 4.258 14.234 14.234 0 0 1-3.414 2.818Zm1.806-16.019c.08-1.153.08-2.31 0-3.464a6.203 6.203 0 0 0-.923-3.235c-.536-.765-1.439-.784-2.7-.06a5.53 5.53 0 0 0-1.518 1.32 8.29 8.29 0 0 0-1.072 1.757 11.566 11.566 0 0 0-.655 1.985 12.003 12.003 0 0 0-.328 1.985c-.049.645-.079 1.39-.079 2.213 0 .824 0 1.529.079 2.114.042.548.152 1.088.328 1.608.135.441.357.849.655 1.201.278.305.661.493 1.072.526a2.658 2.658 0 0 0 1.518-.446 6.09 6.09 0 0 0 2.7-3.167c.538-1.387.85-2.851.923-4.337Zm22.855-8.496c0-.456-.099-.744-.298-.883a1.37 1.37 0 0 0-.992 0c-.65.164-1.29.366-1.916.605-.784.288-1.767.616-2.978.993-2.037.595-3.606.344-4.704-.754-1.102-1.092-1.648-3.047-1.648-5.846.008-1.459.239-2.909.685-4.298a20.325 20.325 0 0 1 1.906-4.258 20.676 20.676 0 0 1 2.977-3.841 17.975 17.975 0 0 1 3.861-2.977 10.671 10.671 0 0 1 3.851-1.449 6.231 6.231 0 0 1 3.057.218 3.97 3.97 0 0 1 1.985 1.608c.507.793.792 1.709.824 2.65a2.63 2.63 0 0 1-.298 1.35 2.132 2.132 0 0 1-.784.992l-4.784 2.759c-.298.169-.526.209-.704.1a4.982 4.982 0 0 0-.616-.318 2.052 2.052 0 0 0-.943-.139 3.96 3.96 0 0 0-1.627.635 5.47 5.47 0 0 0-1.549 1.291 2.602 2.602 0 0 0-.625 1.687c-.039.343.03.69.198.992.139.166.407.205.804.119a16.288 16.288 0 0 0 1.688-.506c.724-.258 1.677-.575 2.858-.992 2.432-.784 4.208-.546 5.32.734a8.317 8.317 0 0 1 1.667 5.628 14.606 14.606 0 0 1-.684 4.317 19.214 19.214 0 0 1-1.985 4.377 22.426 22.426 0 0 1-3.216 4.059 20.777 20.777 0 0 1-4.298 3.286 11.744 11.744 0 0 1-4.238 1.608 5.625 5.625 0 0 1-3.077-.358 4.127 4.127 0 0 1-1.905-1.747 5.713 5.713 0 0 1-.745-2.6 2.618 2.618 0 0 1 .298-1.35c.155-.402.429-.748.784-.992l4.963-2.879c.298-.168.506-.178.645 0 .152.168.326.315.516.437.279.164.601.236.923.209a4.223 4.223 0 0 0 1.816-.705 8.303 8.303 0 0 0 2.085-1.697 2.984 2.984 0 0 0 .903-2.065Zm18.156-15.781a3.268 3.268 0 0 1-.318 1.36 1.974 1.974 0 0 1-.764.933l-5.062 2.928a.581.581 0 0 1-.764-.06 1.29 1.29 0 0 1-.317-.992V91.545c.001-.472.109-.937.317-1.36.152-.383.419-.709.764-.933l5.062-2.977a.587.587 0 0 1 .764.06 1.323 1.323 0 0 1 .318.992v26.708Zm0 13.3a3.237 3.237 0 0 1-.318 1.36 1.983 1.983 0 0 1-.764.933l-5.062 2.928a.586.586 0 0 1-.764-.06 1.278 1.278 0 0 1-.317-.992v-6.253c.001-.472.109-.937.317-1.36.152-.383.419-.709.764-.933l5.062-2.978a.589.589 0 0 1 .764.06 1.347 1.347 0 0 1 .318.993v6.302Z" fill="#455A64"/><path d="M153.062 159.383a18.414 18.414 0 0 1 1.627 4.546c.735 3.91-.675 7.851-1.459 11.741-.258 1.32-.347 2.531.596 3.563a.853.853 0 0 0 .734.348c.239-.06.397-.298.526-.506a23.818 23.818 0 0 0 2.224-5.082 25.887 25.887 0 0 1-.169 5.032 9.167 9.167 0 0 0 0 3.97c.417 1.27 1.846 2.293 2.977 1.667a3.467 3.467 0 0 0 1.32-2.163l.923-2.978a38.644 38.644 0 0 0 1.122-4.218 19.85 19.85 0 0 0-3.206-14.888 7.15 7.15 0 0 0-2.977-2.669 4.255 4.255 0 0 0-3.593.208c-.764.417-1.013.685-.645 1.429Z" fill="#F28F8F"/><path d="M165.766 166.212c-.427-5.211-.606-10.67-1.578-15.603-.973-4.932-3.038-23.899-3.971-29.17-1.22-6.947-2.878-11.294-3.89-15.592-1.142-4.804-2.094-11.374-4.109-21.835s-4.486-16.317-9.657-19.692a23.02 23.02 0 0 0-12.903-3.97c-1.171 3.216-.089 14.471-.089 14.471s4.962 24 5.498 26.947c.536 2.948 5.846 16.436 9.399 27.413 2.035 6.302 5.112 15.166 5.112 15.166.933 3.92 1.26 5.171.476 8.277-.327 1.31-.853 2.561-1.181 3.871a23.068 23.068 0 0 0-.655 4.357c-.05.993 0 1.985-.089 2.978-.09 1.836-.387 3.662-.606 5.488-.149 1.34.626 2.164 1.985 1.747a4.095 4.095 0 0 0 2.233-2.064 17.22 17.22 0 0 0 1.181-4.199c.159-.685.993-4.803 2.293-3.682 1.112.943 2.293 4.159 3.752 6.342a9.062 9.062 0 0 1 1.985 6.948c-.248 3.325-1.836 7.771-1.3 10.58s2.104 3.414 2.67 2.253c.565-1.161 2.282-7.94 2.858-10.292.782-3.524.979-7.152.586-10.739Z" fill="#FFA8A7"/><path d="M152.892 162.52c6.045 2.659 13.578 4.109 16.873 17.011 3.295 12.903 7.196 60.315 7.196 60.315a16.418 16.418 0 0 1-13.191 6.213l.536 13.528s-8.833 4.248-21.994.923c-6.382-1.608-10.312-7.444-10.312-7.444s1.499-38.281 2.541-52.9c1.042-14.62 2.372-44.783 18.351-37.646Z" fill="#455A64"/><path d="M161.637 193.992s1.608 38.708 2.134 52.067a17.877 17.877 0 0 0 4.357-.536l-6.491-51.531Z" fill="#37474F"/><path d="M148.108 163.8c-.089 1.836-.387 3.662-.605 5.488-.149 1.34.625 2.164 1.985 1.747a4.098 4.098 0 0 0 2.233-2.064 17.27 17.27 0 0 0 1.181-4.198c.119-.526.625-3.057 1.449-3.712l-6.144-.229c-.059.983-.049 1.975-.099 2.968Zm6.233-2.739h.844a.581.581 0 0 0-.429-.165.578.578 0 0 0-.415.194v-.029Z" fill="#FFA8A7"/><path d="M135.216 59.646c9.796 4.03 12.903 7.275 14.798 13.21 1.896 5.935 4.884 20.942 5.866 27.463.983 6.521 3.444 12.386 4.814 20.912s2.719 21.002 2.719 21.002-1.776 2.282-7.136 2.6c-5.359.318-8.148-1.618-8.148-1.618s-5.697-17.021-7.851-22.708c-2.154-5.688-7.087-19.851-7.087-19.851l2.025-41.01Z" fill="#E6E6E6"/><path d="m51.41 296.519 6.54 2.004.983-4.714-5.36.506-2.163 2.204Z" fill="#000"/><path d="M53.198 283.338s-2.74 3.146-3.583 4.149c-.844 1.002 1.101 7.652 1.786 9.032l2.164-2.204c.218 1.678-.14 3.325-.486 5.896-.288 2.134-1.36 5.776-.487 9.498 1.3 5.528 5.618 11.146 11.007 15.612 5.39 4.467 9.598 5.538 12.099 5.558 2.501.02 4.08-.992 4.764-2.719.685-1.727-27.264-44.822-27.264-44.822Z" fill="#263238"/><path d="m76.7 283.477 1.548-1.866c1.042.754-.992 3.623-1.36 7.206a62.314 62.314 0 0 0 .13 15.969c1.677 9.439 4.208 16.516 4.962 20.744.993 5.667-8.684 6.034-17.33-1.43-4.297-3.712-10.53-12.098-10.728-16.475-.199-4.377 1.608-9.568 1.29-12.903-.318-3.335-2.66-8.218-1.985-11.414.377-1.757 2.978-4.506 5.34-6.779 2.134-2.074 3.97-6.57 5.032-5.27l-.794 1.548c-.248 1.44.694 4.784 3.84 8.179 1.55 1.727 6.82 6.034 10.055 2.491Z" fill="#455A64"/><path opacity=".15" d="M69.455 283.348c1.846 1.181 4.139 2.035 6.064 1.042h.07a5.55 5.55 0 0 0-1.668 4.585c.16 3.137.1 24.337.1 24.337s-.993-18.322-1.26-21.835c-.338-5.142-.914-6.154-3.316-8.139l.01.01Z" fill="#000"/><path d="M81.98 325.53c-.615-3.573-2.521-9.181-4.11-16.526-.217 2.273.269 4.536 0 5.151-.605 1.529-5.666.407-8.396-.734-2.73-1.141-2.789-6.362-3.87-11.91-1.082-5.548-6.66-4.347-10.918-1.102-.5 2.356-.75 4.758-.745 7.166.199 4.377 6.432 12.764 10.73 16.476 8.605 7.513 18.301 7.146 17.309 1.479Z" fill="#37474F"/><path opacity=".15" d="M68.986 288.618a.688.688 0 0 1-.756.144.694.694 0 1 1 .756-.144Zm.398 5.002a.696.696 0 0 1-.755.145.694.694 0 1 1 .755-.145Zm.396 5.003a.7.7 0 0 1-.992 0 .701.701 0 0 1 .992-.993.7.7 0 0 1 .154.766.7.7 0 0 1-.154.227Zm.41 5.002a.704.704 0 0 1-1.147-.765.704.704 0 0 1 1.352.269.702.702 0 0 1-.206.496Zm.398 5.012a.704.704 0 0 1-1.147-.765.68.68 0 0 1 .154-.227.703.703 0 0 1 1.156.509.704.704 0 0 1-.163.483Z" fill="#000"/><path d="M68.303 288.34a.216.216 0 0 1-.089-.168.279.279 0 0 1 .238-.318c.199 0 4.834-.536 8.159 2.342a.283.283 0 0 1 .03.397.277.277 0 0 1-.193.097.278.278 0 0 1-.204-.067c-3.137-2.719-7.672-2.213-7.722-2.213a.219.219 0 0 1-.219-.07Zm.407 5.002a.25.25 0 0 1-.09-.178.27.27 0 0 1 .239-.308c.198 0 4.833-.546 8.158 2.333a.283.283 0 0 1-.163.494.283.283 0 0 1-.204-.068c-3.137-2.719-7.672-2.213-7.722-2.203a.271.271 0 0 1-.218-.07Zm.367 5.013a.308.308 0 0 1-.084-.287.271.271 0 0 1 .233-.2c.198 0 4.833-.546 8.158 2.333a.28.28 0 0 1 .03.397.283.283 0 0 1-.397.029c-3.136-2.719-7.672-2.213-7.722-2.203a.287.287 0 0 1-.218-.069Zm.417 5.002a.308.308 0 0 1-.09-.179.277.277 0 0 1 .238-.307c.199 0 4.834-.546 8.159 2.332a.29.29 0 0 1 0 .397.297.297 0 0 1-.091.062.283.283 0 0 1-.306-.062c-3.136-2.719-7.672-2.213-7.722-2.203a.296.296 0 0 1-.188-.04Zm.399 5.002a.309.309 0 0 1-.083-.289.265.265 0 0 1 .242-.197c.188 0 4.824-.546 8.148 2.332a.28.28 0 0 1 0 .387.284.284 0 0 1-.199.084.284.284 0 0 1-.198-.084c-3.126-2.709-7.672-2.213-7.721-2.203a.288.288 0 0 1-.189-.03Zm73.385-169.61s.714 12.396.099 38.172c-.516 21.567 1.866 32.753-6.789 46.489-7.732 12.258-55.987 59.084-59.471 63.332 0 0-15.275 1.39-16.02-14.262 0 0 14.223-25.398 20.933-39.8 6.71-14.401 15.88-21.309 15.88-21.309l-12.535-62.786 57.903-9.836Z" fill="#263238"/><path d="m90.706 147.681-5.3.894v.228l12.079 60.543.407 1.519h-.1l.1.466s-6.521 4.963-12.595 15.126c2.144 5.479 6.352 15.027 6.352 15.027.377 1.479-3.89 7.533-1.459 25.755.179 1.311.496 3.216.863 5.271 10.859-10.978 25.667-25.915 35.592-36.981.486-2.849 1.985-12.228 1.112-19.394-.874-7.166-4.09-42.321-4.09-42.321a29.66 29.66 0 0 0 8.02-7.374 19.565 19.565 0 0 0 3.742-8.119 121.223 121.223 0 0 0 4.119-14.381l-48.842 3.741ZM109.75 347.99l6.501-2.134-1.906-4.416-4.099 3.493-.496 3.057Z" fill="#000"/><path d="M103.637 336.159s-.436 4.159-.546 5.469c-.109 1.31 5.3 5.628 6.66 6.362l.496-3.057c1.152 1.251 1.797 2.799 2.978 5.102.993 1.915 2.213 5.518 5.072 8.049 4.238 3.772 11.007 5.886 17.974 6.441 6.968.556 11.047-.992 13.101-2.421 2.055-1.429 2.75-3.176 2.333-4.963-.417-1.786-48.068-20.982-48.068-20.982Z" fill="#263238"/><path d="m122.932 322.761.188-2.412c1.29 0 1.29 3.523 3.037 6.669 2.352 4.238 5.836 9.568 9.29 12.992 6.799 6.759 12.903 11.087 15.98 14.124 4.069 4.069-3.633 9.925-14.997 8.803-5.648-.565-15.573-3.841-18.253-7.304-2.679-3.464-4.198-8.754-6.352-11.275-2.153-2.521-6.947-5.181-8.188-8.199-.705-1.647-.129-5.409.467-8.605.555-2.977-.566-7.642 1.081-7.205l.249 1.717c.625 1.32 3.305 3.513 7.84 4.486 2.263.476 9.042.973 9.658-3.791Z" fill="#455A64"/><path opacity=".15" d="M116.925 326.84c2.183-.099 4.565-.715 5.558-2.64v-.06a5.514 5.514 0 0 0 1.27 4.705c1.985 2.471 14.094 19.85 14.094 19.85s-11.384-14.382-13.578-17.091c-3.225-3.97-4.287-4.506-7.394-4.754l.05-.01Z" fill="#000"/><path d="M151.455 354.134c-2.561-2.571-7.345-6.054-12.903-11.146 1.141 1.985 2.839 3.553 2.978 4.198.377 1.598-4.407 3.593-7.295 4.228-2.889.636-5.955-3.592-9.995-7.473-4.04-3.881-7.94.278-9.588 5.399a34.236 34.236 0 0 0 3.514 6.293c2.68 3.463 12.605 6.739 18.252 7.304 11.374 1.122 19.076-4.734 15.037-8.803Z" fill="#37474F"/><path opacity=".15" d="M119.587 331.405a.701.701 0 0 1-.794.586.701.701 0 0 1-.065-1.371.707.707 0 0 1 .859.785Zm3.194 3.861a.69.69 0 0 1-.521.577.698.698 0 0 1-.273.009.696.696 0 0 1-.306-1.246.7.7 0 0 1 .77-.036.695.695 0 0 1 .33.696Zm3.209 3.871a.702.702 0 0 1-.799.581.7.7 0 0 1-.581-.799.713.713 0 0 1 .804-.586.708.708 0 0 1 .456.282.692.692 0 0 1 .12.522Zm3.203 3.861a.698.698 0 1 1-1.377-.218.698.698 0 0 1 1.377.218Zm3.208 3.861a.695.695 0 1 1-1.373-.215.695.695 0 0 1 1.373.215Z" fill="#000"/><path d="M118.864 331.584a.268.268 0 0 1-.179-.099.286.286 0 0 1 0-.397c.149-.129 3.642-3.216 8.019-2.779a.269.269 0 0 1 .239.199c.01.035.014.072.009.108a.285.285 0 0 1-.307.258c-4.129-.416-7.553 2.601-7.583 2.631a.322.322 0 0 1-.198.079Zm3.203 3.841a.23.23 0 0 1-.179-.089.29.29 0 0 1 0-.397c.149-.129 3.643-3.216 8.019-2.779a.269.269 0 0 1 .239.199.288.288 0 0 1-.298.366c-4.119-.416-7.553 2.601-7.583 2.631a.269.269 0 0 1-.198.069Zm3.197 3.881a.276.276 0 0 1-.168-.09.269.269 0 0 1 0-.397c.149-.129 3.632-3.225 8.009-2.779a.278.278 0 0 1 .248.308.275.275 0 0 1-.102.188.282.282 0 0 1-.205.06c-4.129-.417-7.553 2.61-7.583 2.64a.29.29 0 0 1-.199.07Zm3.207 3.861a.279.279 0 0 1-.169-.09.28.28 0 0 1 0-.397c.139-.129 3.633-3.225 8.01-2.779.072.01.137.048.182.105a.285.285 0 0 1 .056.203.273.273 0 0 1-.099.192.28.28 0 0 1-.099.05.254.254 0 0 1-.11.006c-4.119-.417-7.543 2.61-7.583 2.64a.245.245 0 0 1-.087.054.267.267 0 0 1-.101.016Zm3.205 3.86a.217.217 0 0 1-.1-.024.216.216 0 0 1-.079-.065.29.29 0 0 1 0-.397c.139-.129 3.633-3.216 8.01-2.779.072.01.137.048.182.105a.28.28 0 0 1 .056.203.284.284 0 0 1-.197.248.294.294 0 0 1-.111.01c-4.118-.417-7.543 2.6-7.582 2.63a.26.26 0 0 1-.179.069ZM73.791 134.749s-.347 15.88-.278 23.006c.139 14.63 2.978 20.655 6.59 32.962 2.978 9.984 14.958 46.648 15.88 50.191-1.27 7.742-2.61 14.59 0 31.492 3.742 24.396 7.941 53.368 7.941 53.368 2.233 3.097 17.458 4.218 21.885-.268 0 0 1.31-78.051.833-94.001-.407-13.895-6.878-59.322-6.878-59.322s20.744-8.725 22.53-33.13l-68.503-4.298Z" fill="#263238"/><path d="M99.644 52.172s22.728 1.539 35.571 7.474c2.869 1.32 11.404 12.505 10.392 27.919-2.561 38.827-1.538 60.424-1.538 60.424-.705 1.985-8.07 12.704-28.396 14.63-20.942 1.985-32.753-.179-42.599-8.824.07-16.485.358-37.536.536-51.68.14-10.917.308-17.865 1.578-25.587.844-5.131 2.978-12.803 6.501-14.778a100.657 100.657 0 0 1 12.327-5.955 16.267 16.267 0 0 0 5.628-3.623Z" fill="#FAFAFA"/><path d="M100.022 53.194c3.206.248 23.225 1.985 34.738 7.345 2.62 1.21 10.798 11.98 9.806 26.957-2.392 36.375-1.638 57.923-1.539 60.324-.407.884-2.233 3.722-6.421 6.69-3.801 2.7-10.541 6.124-21.071 7.126-4.824.457-8.992.685-12.744.685-12.823 0-21.468-2.69-28.783-8.933.06-14.599.298-32.921.467-46.33l.06-4.893c.138-10.74.317-17.865 1.567-25.438.993-5.856 3.206-12.486 6.015-14.074a99.244 99.244 0 0 1 12.218-5.955 17.598 17.598 0 0 0 5.627-3.514m-.377-.992a16.268 16.268 0 0 1-5.627 3.623A100.641 100.641 0 0 0 81.63 61.77c-3.484 1.985-5.658 9.647-6.501 14.778-1.27 7.692-1.44 14.72-1.578 25.587-.18 14.143-.467 35.195-.536 51.68 7.612 6.7 16.436 9.508 29.775 9.508 3.871 0 8.119-.238 12.833-.684 20.327-1.926 27.691-12.655 28.396-14.63 0 0-.993-21.597 1.538-60.424.993-15.414-7.523-26.6-10.391-27.92-12.843-5.955-35.572-7.473-35.572-7.473h-.01Z" fill="#E0E0E0"/><path d="M100.091 8.462c-6.163 6.947-4.168 15.146-1.985 23.364 2.581 9.359 2.74 12.386 8.119 14.728-1.211-29.388 8.178 6.62 31.76-16.227 4.258-4.129 4.526-16.873-.635-22.709-7.295-8.198-25.21-12.277-37.259.844Z" fill="#37474F"/><path d="M98.85 41.056c4.288 1.786 6.233-1.161 6.233-1.161l-3.791 10.917s-2.442 6.77 3.077 10.035c15.264 9.17 11.811 13.031 16.972 17.488 1.746-2.194 1.518-12.02 1.796-14.61l3.345-10.51a32.64 32.64 0 0 0 5.22-.239c4.09-.576 6.402-3.484 7.692-7.87 2.055-7.067 1.747-17.727-.784-31.533-4.516-3.563-19.483-4.337-29.16 1.618.348 8.119-1.856 9.439-1.856 12.903 0 3.92-.268 4.823-1.469 5.35-1.201.525-2.272-1.31-2.759-2.462-.814-1.985-1.508-3.196-3.424-3.672-1.915-.477-4.06-.17-5.816 2.411-2.72 4.01 1.568 10.045 4.724 11.335Z" fill="#FFA8A7"/><path d="M126.481 53.254c-4.833-.238-11.622-2.78-14.361-5.34-2.74-2.56-4.526-7.543-4.526-7.543a15.602 15.602 0 0 0 3.493 9.27c3.573 4.347 14.382 6.799 14.382 6.799l1.012-3.186Zm-2.569-35.77c-.129 0-.288.08-.298.208-.01.13.129.169.228.229.166.094.326.2.476.317.159.108.291.25.388.417.054.127.094.26.119.397.031.224.048.45.049.675 0 .188.159.317.338.159a.571.571 0 0 0 .149-.219 1.7 1.7 0 0 0 .129-.794c-.02-.15-.06-.297-.119-.436a1.609 1.609 0 0 0-1.459-.953Zm7.384.297a.431.431 0 0 0-.123-.406.427.427 0 0 0-.413-.1 1.847 1.847 0 0 0-.993 1.221 1.99 1.99 0 0 0 .397 2.134c.09.08.219.149.308.09.089-.06 0-.993.07-1.202.011-.35.11-.69.287-.992.119-.228.387-.447.467-.744Zm-4.02-1.736a.13.13 0 0 0-.117-.017.13.13 0 0 0-.081.086.624.624 0 0 0 .109.526c.09.19.167.385.228.586.131.4.205.819.218 1.24a6.67 6.67 0 0 1-.079 1.181c-.059.368-.169.725-.228 1.092 0 0 0 .14.079.1a2.758 2.758 0 0 0 .794-2.234 4.788 4.788 0 0 0-.208-1.35 2.282 2.282 0 0 0-.715-1.21Z" fill="#F28F8F"/><path d="m118.57 20.898 4.367-1.677a2.45 2.45 0 0 1-1.389 3.096 2.286 2.286 0 0 1-2.523-.625 2.302 2.302 0 0 1-.455-.794Zm13.876-2.342 4.228 2.084a2.259 2.259 0 0 1-3.086 1.131 2.472 2.472 0 0 1-1.142-3.216Z" fill="#37474F"/><path d="M122.938 25.404c-.407-.992-.993.407-2.184.903-1.191.497-2.491-.119-2.084.864a2.35 2.35 0 0 0 4.04-.192c.257-.483.337-1.04.228-1.575Zm13.765.973c.249-.993-.992-.248-2.292-.536-1.3-.288-1.985-1.549-2.204-.516a2.346 2.346 0 0 0 1.805 2.422 2.342 2.342 0 0 0 2.691-1.37Z" fill="#263238"/><path d="m126.324 23.032 1.767 12.903 6.431-1.49c-1.419-3.741-5.409-9.706-8.198-11.413Z" fill="#F28F8F"/><path d="M123.377 38.942c-.299.184-.55.436-.735.734-.566.933.238 1.41 1.092 1.49a7.59 7.59 0 0 1 2.7.773c.36.261.795.4 1.24.397a1.076 1.076 0 0 0 .715-.426c.129-.244.178-.522.139-.794a3.223 3.223 0 0 0-1.985-2.502 3.603 3.603 0 0 0-3.166.328Z" fill="#B16668"/><path d="M126.434 41.989c.199.114.404.217.615.308a4.05 4.05 0 0 0-3.911-3.117c-.198.15-.366.335-.496.546-.566.933.238 1.41 1.092 1.489a7.59 7.59 0 0 1 2.7.774Z" fill="#F28F8F"/><path d="M119.555 84.756c-4.655-3.235-13.37-10.371-20.595-31.552l-2.858 1.985s4.585 21.766 22.758 32.823l.695-3.256ZM124 84.34c1.34-1.827 4.427-14.263 1.34-27.622l2.531 2.431c2.6 13.052-.219 25.2-2.65 28.843L124 84.339Zm-.207 6.748s5.469 38.431 5.687 42.202c.219 3.772-5.707 12.903-6.511 13.409-.804.506-6.113-8.436-6.183-11.414-.069-2.978 3.841-44.206 3.841-44.206l3.166.01Z" fill="#6D55F1"/><path d="M124.002 84.34a8.247 8.247 0 0 0-4.446.416c-.834 1.499-1.131 3.821-.476 4.913s1.885 2.78 3.394 2.71c1.509-.07 2.779-1.985 2.978-3.822.198-1.984-1.45-4.218-1.45-4.218Z" fill="#6D55F1"/><path opacity=".2" d="M124.002 84.34a8.247 8.247 0 0 0-4.446.416c-.834 1.499-1.131 3.821-.476 4.913s1.885 2.78 3.394 2.71c1.509-.07 2.779-1.985 2.978-3.822.198-1.984-1.45-4.218-1.45-4.218Z" fill="#fff"/><path d="M121.273 78.374c-2.669-3.047-3.602-12.207-5.578-13.746-1.975-1.538-13.438-8.545-14.52-13.578l1.27-3.662c-1.369-.625-3.215 3.752-8.426 8.407 0 0-.645 5.32 3.345 11.364 4.694 7.136 8.813 9.528 8.813 9.528s5.737-7.404 6.68-7.692c.943-.288 5.22 8.288 8.416 9.38Zm0 0c1.43-2.5 1.201-12.783 1.608-14.143.854-2.858 3.365-10.252 3.365-10.252.421.323.801.696 1.131 1.111 4.745 6.134 4.596 14.987 3.296 17.716-1.37-2.908-4.626-6.66-5.211-5.955-.586.705-1.737 10.303-4.189 11.523Z" fill="#F0F0F0"/><path d="m103.548 203.967 2.322 47.283c.109 2.293-1.439 3.692-3.364 4.963l-4.834 3.136a4.797 4.797 0 0 1-3.85.993 10.6 10.6 0 0 1-2.71-.993.186.186 0 0 1-.1 0l-.278-.149-52.265-26.798a11.987 11.987 0 0 1-6.511-10.094l-2.114-43.055a3.41 3.41 0 0 1 1.419-2.749l8.238-5.31a3.379 3.379 0 0 1 3.077-.149l59.253 30.331c.47.261.866.637 1.151 1.092.312.444.507.96.566 1.499Z" fill="#37474F"/><path d="m103.549 203.967 2.323 47.283c.109 2.293-1.439 3.692-3.365 4.963l-4.833 3.136a4.797 4.797 0 0 1-1.818.913 4.793 4.793 0 0 1-2.033.08 10.6 10.6 0 0 1-2.71-.993c1.985.834 3.544-.278 3.424-2.62l-2.183-44.544a4.773 4.773 0 0 0-.804-2.273l11.473-7.394a3.2 3.2 0 0 1 .526 1.449Z" fill="#263238"/><path d="M92.353 212.135a5.191 5.191 0 0 0-2.53-3.97l-56.038-28.783c-2.213-1.141-3.97 0-3.801 2.452l1.985 40.306a12.012 12.012 0 0 0 6.51 10.103l52.267 26.798c2.213 1.142 3.97 0 3.8-2.451l-2.193-44.455Z" fill="#455A64"/><path d="m36.83 172.792 59.412 30.837a5.448 5.448 0 0 1 2.908 4.536l2.392 48.633-.854.556-2.421-49.179a4.558 4.558 0 0 0-2.432-3.791l-59.858-31.066.853-.526Z" fill="#6D55F1"/><path opacity=".2" d="M98.295 205.515a5.4 5.4 0 0 1 .854 2.65l2.392 48.633-.854.556-2.422-49.179a4.463 4.463 0 0 0-.714-2.213l.744-.447Z" fill="#000"/><path opacity=".2" d="M97.552 205.992a4.47 4.47 0 0 0-1.717-1.579l-59.858-31.065.853-.556 59.412 30.837a5.53 5.53 0 0 1 2.054 1.886" fill="#000"/><path d="m57.645 177.834.357 7.315-2.819 1.796-.476-9.726c0-.497.308-.715.754-.487l2.184 1.102Z" fill="#6D55F1"/><path opacity=".4" d="m57.645 177.834.357 7.315-2.819 1.796-.476-9.726c0-.497.308-.715.754-.487l2.184 1.102Z" fill="#000"/><path d="m78.118 184.077.586 11.85-2.68 1.718-1.886-.993-.486-9.727a1.746 1.746 0 0 0-.844-1.32l-14.322-7.344-2.977-1.529c-.447-.228-.784 0-.754.487l.476 9.726-1.896-.992-.585-11.851a.862.862 0 0 1 0-.159 1.732 1.732 0 0 1 .714-1.24l1.132-.735a1.774 1.774 0 0 1 1.578-.059l21.1 10.848a1.713 1.713 0 0 1 .844 1.32Z" fill="#6D55F1"/><path opacity=".2" d="m75.468 185.794.556 11.851-1.886-.993-.486-9.727a1.746 1.746 0 0 0-.844-1.32l-14.322-7.344-2.977-1.529c-.447-.228-.784 0-.754.487l.476 9.726-1.896-.992-.585-11.851a.862.862 0 0 1 0-.159c.05-.387.357-.536.754-.337l21.11 10.848a1.758 1.758 0 0 1 .854 1.34Z" fill="#000"/><path d="m65.523 176.712 8.993 4.626a7.87 7.87 0 0 0-1.191-3.97c-.993-.993-4.963-4.963-6.293-4.556-.625.188-1.21 1.915-1.509 3.9Zm0 5.221c.069.279.162.551.278.814a13.947 13.947 0 0 0 3.831 4.476 6.032 6.032 0 0 0 2.879-1.707l-6.988-3.583Z" fill="#F28F8F"/><path d="M79.37 66.057c-6.531 2.869-11.265 7.88-14.64 18.53-3.374 10.65-7.503 23.295-9.15 34.381-1.648 11.086-3.088 34.242-3.494 41.418a63.8 63.8 0 0 0-.229 8.704 70.306 70.306 0 0 0 1.578 9.756 4.572 4.572 0 0 0 2.67 3.484c.398.105.784.252 1.152.437.665.407.992 1.221 1.518 1.776a3.62 3.62 0 0 0 2.462.923c.406 0 .813 0 1.21.05 1.48.218 2.561 1.529 3.97 1.985 1.04.452 2.215.48 3.276.079a10.019 10.019 0 0 0 1.548-.992c.268-.199.993-.923 1.22-1.132-1.984.179-3.443-1.468-4.198-2.977a14.766 14.766 0 0 1-1.409-5.776 3.284 3.284 0 0 1 .199-1.39.64.64 0 0 1 .506-.417c.258 0 .427.248.566.467a13.978 13.978 0 0 0 3.175 4.148 3.11 3.11 0 0 0 1.986.824 1.428 1.428 0 0 0 1.439-1.32 2.28 2.28 0 0 0-.258-.824 38.362 38.362 0 0 1-2.412-6.521 24.897 24.897 0 0 0-2.154-6.054c-1.102-1.985-3.682-4.684-3.404-6.947.456-3.881 7.632-34.163 7.632-34.163s8.655-26.5 10.73-33.507c2.6-8.704.783-19.88-5.49-24.942Z" fill="#FFA8A7"/><path d="M81.691 61.75c-10.441 5.32-12.972 9.518-15.83 17.428-2.571 7.077-8.278 26.481-9.707 33.388-2.541 12.357-3.97 35.989-3.97 35.989s1.23 3.394 7.414 4.883c6.183 1.489 8.654-.407 8.654-.407l6.948-30.013s10.749-24.912 11.622-28.426c1.817-7.057 3.315-28.088-5.131-32.842Z" fill="#E6E6E6"/><path d="M161.17 41.92c.258.664.387 1.37.685 1.984a6.94 6.94 0 0 0 1.141 1.717 5.768 5.768 0 0 0 3.712 1.876c3.047.268 6.432-2.273 5.737-5.578a.549.549 0 0 1 .313-.565.544.544 0 0 1 .223-.05c1.985-.198 3.087-2.203 3.067-4.07a4.04 4.04 0 0 0-3.315-4.267 6.171 6.171 0 0 0-1.281-.07 8.72 8.72 0 0 1-1.24.11c-.794-.07-.874-1.072-1.211-1.628a4.279 4.279 0 0 0-7.116-.486 6.074 6.074 0 0 0-1.052 2.977c0 .12-.308.467-.378.199a4.716 4.716 0 0 1 2.402-5.042 5.312 5.312 0 0 1 6.035.575 5.1 5.1 0 0 1 .992 1.092c.147.22.274.452.377.695.06.119.179.675.278.734.194.004.387-.016.576-.06h.754a6.94 6.94 0 0 1 1.697.2 4.843 4.843 0 0 1 3.583 4.853 4.962 4.962 0 0 1-3.563 5.042c.417 3.652-3.206 6.411-6.659 6.322a6.659 6.659 0 0 1-4.556-1.985c-1.052-1.052-2.223-2.839-1.935-4.387.029-.347.595-.556.734-.189Zm-12.425-4.894a24.166 24.166 0 0 1 4.854-.992l2.124-.338a13.175 13.175 0 0 1 2.253-.268c.347 0 .149.477-.06.556-.776.258-1.573.448-2.382.566l-2.253.397-2.154.347a9.454 9.454 0 0 1-2.421.179c-.229.01-.11-.377.039-.447Zm1.278 4.546c.284-.094.577-.154.874-.179.337-.05.665-.079.992-.109l1.737-.1c.586 0 1.162 0 1.747-.059a8.512 8.512 0 0 1 2.074.05c.328.07 0 .536-.168.586-.571.094-1.149.144-1.727.148l-1.807.1-1.786.109-.834.05a4.415 4.415 0 0 1-1.201 0c-.268-.12-.069-.526.099-.596Z" fill="#455A64"/></svg>