<svg width="100" height="43" fill="none" xmlns="http://www.w3.org/2000/svg"><path d="M0 0h90c5.523 0 10 4.477 10 10v23c0 5.523-4.477 10-10 10H0V0Z" fill="#fff"/><path d="M16.815 25.597V22.65h6.541c.287 0 .575 0 .862-.072 1.15-.287 1.87-1.006 2.013-2.156.072-.863.144-1.725-.144-2.588-.36-1.078-1.222-1.725-2.372-1.725h-6.828c-.862-.072-1.293.36-1.365 1.222v12.363h-2.947V17.332c0-2.516 1.725-4.241 4.24-4.241h6.972c2.875 0 5.032 1.94 5.39 4.815.145 1.222.216 2.516-.143 3.738-.503 2.084-2.3 3.665-4.456 3.953-.36.072-.79.072-1.222.072h-6.038c-.143-.072-.287-.072-.503-.072Z" fill="#F83725"/><path d="M55.628 13.09h2.156v10.782c0 .647.072 1.366.288 1.94.503 1.294 1.51 1.941 2.875 2.085.503 0 1.006 0 1.51-.072 1.508-.287 2.443-1.366 2.658-2.875.144-.79.072-1.653-.143-2.444-.503-1.437-1.797-2.372-3.378-2.444-1.007-.071-1.87.144-2.732.72-.072 0-.072.071-.143.071v-1.94c0-.072.143-.144.215-.216 3.235-1.581 7.69-.072 8.338 4.169.143.862.143 1.797-.072 2.659-.431 2.372-2.372 4.097-4.816 4.384-1.006.144-1.94.072-2.947-.215-2.012-.647-3.522-2.444-3.665-4.672-.072-.503-.072-1.006-.072-1.51v-9.99c-.072-.072-.072-.216-.072-.431Z" fill="#152271"/><path d="M38.09 27.681c0-.072.073-.143.073-.215 0-1.582 0-3.235-.072-4.816-.072-1.438-1.006-2.3-2.516-2.372H31.55v-1.94l.072-.072c1.725.072 3.522-.072 5.247.143 2.013.216 3.234 1.797 3.306 3.81.072 2.372 0 4.743 0 7.115v.288h-5.39c-.935 0-1.797-.144-2.588-.647-.934-.503-1.51-1.366-1.581-2.444-.216-2.3 1.006-3.378 2.875-3.881 1.15-.287 2.3-.216 3.45.144.215.072.287.143.287.431v1.725c-.79-.503-1.653-.719-2.515-.575-.431.072-.863.144-1.294.36-.647.287-.862.862-.79 1.509.071.575.43 1.006 1.006 1.15.287.072.575.144.934.144h3.378c.072.143.072.143.144.143Z" fill="#F83725"/><path d="M72.735 25.31v-1.797h.718c.575-.072 1.222-.072 1.797-.144 1.078-.144 1.438-.863 1.438-2.013 0-.79-.719-1.294-1.725-1.365-1.94-.072-3.522 1.15-3.738 3.09-.072.647-.072 1.294.072 1.94.431 2.013 2.228 3.163 4.24 2.804.648-.072 1.223-.36 1.87-.575.359.36.79.863 1.221 1.366-.718.575-1.58 1.006-2.587 1.15-1.294.215-2.588.143-3.81-.36-2.084-.862-3.378-2.875-3.306-5.319 0-.862.144-1.724.431-2.587.935-2.516 3.235-3.881 5.966-3.45a6.453 6.453 0 0 1 1.94.503c1.079.431 1.582 1.294 1.582 2.444 0 .503 0 1.006-.144 1.51-.287 1.293-1.15 2.012-2.372 2.443-.934.36-2.515.503-3.593.36Z" fill="#152271"/><path d="M52.896 29.694h-1.94V20.78c0-.503 0-.503-.504-.503h-4.384c-1.294 0-1.94.575-2.012 1.869-.072.503-.072.934-.072 1.437v6.11H41.97c0-.072-.072-.216-.072-.288 0-2.372 0-4.743.072-7.115 0-.647.144-1.222.36-1.87.43-1.15 1.365-1.724 2.515-1.94.79-.144 1.582-.144 2.444-.144h1.653v1.797h.144c.215-.503.503-.934.647-1.437.143-.288.287-.431.575-.36h2.587v11.357Z" fill="#F83725"/><path d="M86.893 29.694c-1.15 0-2.156-.144-3.234-.575-1.438-.647-2.013-1.869-2.085-3.306-.072-1.654 0-3.379 0-5.032v-.503h-1.94c1.365-1.365 2.731-2.731 4.097-4.025v2.013h3.162v2.012h-3.162v4.672c0 1.94.718 2.516 2.587 2.731h.647c-.072.719-.072 1.366-.072 2.013Z" fill="#152271"/><path d="M51.747 16.253c-.719 0-1.222-.503-1.222-1.222s.503-1.293 1.222-1.293c.718 0 1.222.503 1.294 1.221 0 .791-.575 1.294-1.294 1.294Z" fill="#F83725"/></svg>