<svg width="100" height="43" fill="none" xmlns="http://www.w3.org/2000/svg"><path d="M0 0h90c5.523 0 10 4.477 10 10v23c0 5.523-4.477 10-10 10H0V0Z" fill="#222"/><path d="m11.056 30.437.436-2.866h.374c.935.498 2.555.747 3.676.747.935 0 2.68-.124 2.804-1.308.125-.748-.934-1.184-1.433-1.433l-1.994-1.06c-1.682-.872-2.367-2.43-2.18-3.738.373-2.554 2.242-3.489 4.672-3.489 1.62 0 2.804.125 4.113.685l-.374 2.867h-.374c-.81-.499-2.118-.748-3.115-.748-.561 0-1.745.062-1.87.81-.062.374.686.872 1.184 1.121l2.181 1.122c1.932.997 2.492 2.492 2.306 3.988-.437 3.115-2.867 4.05-5.733 4.05-1.557-.063-3.427-.312-4.673-.748ZM27.38 17.602h3.365l-.374 2.803h-3.364l-.935 6.543c-.125 1.121.187 1.37 1.433 1.37.623 0 1.246-.186 1.932-.56h.373l-.436 2.804c-.997.373-1.869.56-2.679.56-3.551 0-4.237-1.557-3.8-4.735l.81-6.044h-1.496l.374-2.804h1.495l.499-2.928h3.24l-.436 2.99Zm27.042 2.741h-.373c-1.06-.498-2.867 0-3.988.685l-1.37 9.845h-3.24l1.868-13.271h3.116l-.125.81h.125c1.433-.686 2.43-1.06 4.361-1.06l-.373 2.991Z" fill="#fff"/><path d="M57.163 31.122c-1.744 0-3.177-1.433-3.177-3.24V12.305h3.24v5.608h.124c.81-.436 1.558-.56 2.43-.56 4.05 0 6.044 2.865 6.044 6.729 0 3.925-1.869 7.103-6.48 7.103h-2.18v-.063Zm0-3.613c0 .373.374.747.748.747h1.06c2.866 0 3.426-1.62 3.426-4.237 0-2.18-.747-3.863-2.99-3.863-.81 0-1.496.125-2.243.312v7.04Zm13.272-2.057c.25 2.056 2.181 2.929 4.112 2.929 1.122 0 2.43-.187 3.552-.81h.374v2.928c-1.433.499-2.68.623-4.175.623-4.299 0-7.29-2.367-7.29-6.854 0-3.24 1.932-6.978 6.231-6.978 4.673 0 6.168 3.925 5.92 8.162h-8.724Zm.063-2.617h5.42c-.124-1.682-.997-2.741-2.617-2.741-1.682 0-2.679 1.184-2.803 2.741Zm13.645-5.233h3.365v2.803h-3.365v6.543c0 1.121.623 1.37 1.62 1.37.623 0 1.246-.186 1.87-.56h.373v2.804c-.934.373-1.807.56-2.554.56-3.116 0-4.424-1.557-4.424-4.735v-6.044h-1.62V17.54h1.495v-2.928h3.24v2.99Z" fill="#6A438F"/><path d="M44.764 29.752v.373c-.124.623-.685 1.184-1.37 1.247-.686.062-1.371-.374-1.932-.81-1.558-1.122-3.053-2.181-4.61-3.303-.935-.623-1.87-1.308-2.43-2.305-1.122-2.056-.125-4.673 1.93-5.67 1.185-.56 2.618-.56 3.74.062.747.436 1.37 1.184 1.806 1.932.436.747.748 1.62.997 2.492.56 1.62 1.122 3.24 1.62 4.86.125.374.25.748.25 1.122Z" fill="#E2B5D4"/><path d="M33.424 31.247c-.124.062-.249.062-.373.062-.686.063-1.371-.311-1.558-.934-.25-.686 0-1.433.25-2.119.622-1.744 1.245-3.551 1.868-5.296.374-1.06.748-2.18 1.558-2.928 1.62-1.683 4.486-1.433 5.982.249.872.934 1.246 2.367.934 3.614-.249.872-.748 1.62-1.37 2.243-.624.623-1.371 1.121-2.119 1.62-1.433.997-2.804 1.931-4.237 2.928-.25.25-.56.436-.935.561Z" fill="#B985BB"/><path d="M28.751 21.465c-.062-.125-.124-.187-.187-.312-.311-.623-.124-1.37.374-1.807.561-.498 1.309-.498 2.056-.498h5.67c1.122 0 2.306 0 3.303.498 2.118.997 2.804 3.739 1.744 5.732-.623 1.122-1.807 1.994-3.115 2.119-.872.062-1.807-.187-2.555-.56-.747-.375-1.557-.935-2.243-1.434a241.746 241.746 0 0 0-4.174-2.99c-.312-.25-.623-.437-.873-.748Z" fill="#8658A0"/><path d="M36.726 13.739c.063-.125.125-.187.25-.312.498-.436 1.246-.56 1.869-.187.623.374.872 1.122 1.121 1.807.561 1.807 1.184 3.552 1.745 5.358.374 1.06.685 2.181.56 3.303-.31 2.305-2.678 3.863-4.922 3.427-1.246-.25-2.43-1.122-2.928-2.306-.374-.81-.374-1.744-.312-2.617a11.89 11.89 0 0 1 .686-2.554c.498-1.62 1.06-3.24 1.558-4.86.062-.436.186-.81.373-1.06Z" fill="#6A438F"/><path d="m46.883 19.595.374.187c.56.374.81 1.122.623 1.745-.25.685-.872 1.121-1.495 1.495-1.62.997-3.24 1.932-4.798 2.929-.935.56-1.932 1.184-3.053 1.308-2.306.25-4.362-1.744-4.486-3.988-.063-1.308.498-2.616 1.557-3.364.686-.56 1.62-.81 2.493-.872.872-.063 1.807 0 2.679.062 1.682.124 3.427.25 5.11.436.31-.062.684-.062.996.062Z" fill="url(#a)"/><path d="M38.098 21.776h-1.745l.062.81.063 1.309v.498c0 .125.062.25.124.374 0 0 .063.062.063.125l.124.124c.125.125.312.25.56.374.126.062.25.125.313.125.124.062.249.062.373.124h.125c.125-.062.25-.062.374-.124.062 0 .187-.063.311-.125.25-.125.437-.25.561-.374l.125-.124c.062-.063.062-.125.062-.125.062-.125.125-.25.125-.374v-.498l.062-1.309.062-.81h-1.744Zm1.246-.81-.125.25h-.249l-.125-.25h-.498l-.125.25h-.311l-.063-.25h-.56l-.063.25h-.311l-.062-.25h-.623l.062.748h3.551l.063-.748h-.561Z" fill="#fff"/><path d="m38.097 22.212-.124-.311h-1.495l.062.685c.187-.25.436-.25.498-.25h.063c-.187 0-.499.312-.561.624l.062.935c.125-.125.25-.125.312-.125.124 0 .187.062.187.062-.187 0-.437.187-.437.499v.124c0 .125.063.25.125.374.125-.311.374-.311.374-.311-.125.062-.25.311-.187.56.125.125.312.25.56.374 0-.311.188-.374.188-.374s-.125.25.124.499c.125.062.25.062.374.124.125-.062.25-.062.374-.124.25-.25.125-.499.125-.499s.187.063.187.374c.249-.124.373-.249.56-.374.063-.249-.062-.498-.187-.56 0 0 .25 0 .374.311.063-.124.063-.249.125-.374v-.124c0-.25-.25-.499-.436-.499 0 0 .062-.062.187-.062a.4.4 0 0 1 .311.125l.063-.935c-.063-.312-.374-.623-.561-.623h.062c.125 0 .312 0 .498.25l.063-.686H38.47l-.373.311Z" fill="url(#b)"/><path d="m39.406 21.09-.124.25h-.437l-.062-.25h-.374l-.124.25h-.437l-.124-.25h-.312l-.124.25h-.436l-.125-.25h-.374l.062.5h3.303l.062-.5h-.374Z" fill="url(#c)"/><path d="M37.475 22.96c0-.187.124-.311.311-.311h.312c.311 0 .56.186.56.436 0 .124-.062.311-.187.311.188.063.312.187.312.374 0 .374-.312.499-.623.499h-.623V22.96h-.062Zm.311.374h.25c.124 0 .31 0 .31-.187 0-.125-.124-.187-.31-.187h-.188c-.062 0-.062.062-.062.062v.312Zm.312.25h-.25v.435h.312c.187 0 .312 0 .312-.249-.063-.187-.25-.187-.374-.187Z" fill="#fff"/><defs><linearGradient id="a" x1="29.578" y1="25.595" x2="42.983" y2="21.697" gradientUnits="userSpaceOnUse"><stop stop-color="#FEC932"/><stop offset="1" stop-color="#F37437"/></linearGradient><linearGradient id="b" x1="40.388" y1="22.759" x2="36.132" y2="24.132" gradientUnits="userSpaceOnUse"><stop stop-color="#FEC932"/><stop offset="1" stop-color="#F26737"/></linearGradient><linearGradient id="c" x1="38.755" y1="20.854" x2="37.291" y2="21.861" gradientUnits="userSpaceOnUse"><stop stop-color="#FEC932"/><stop offset="1" stop-color="#F26737"/></linearGradient></defs></svg>