<svg xmlns="http://www.w3.org/2000/svg" xmlns:xlink="http://www.w3.org/1999/xlink" viewBox="0 0 233.88 230.96"><defs><style>.cls-1{isolation:isolate;}.cls-2,.cls-6{fill:#fff;}.cls-3{fill:#6d55f1;}.cls-4{fill:#323334;}.cls-5{fill:#979797;}.cls-5,.cls-6,.cls-9{mix-blend-mode:screen;}.cls-7{fill:url(#linear-gradient);}.cls-8{fill:#cfd1d2;mix-blend-mode:multiply;}.cls-9{fill:#4a4b4c;}</style><linearGradient id="linear-gradient" x1="186.05" y1="66.37" x2="193.84" y2="61.37" gradientTransform="matrix(1, 0, 0, 1, 0.41, 0.11)" gradientUnits="userSpaceOnUse"><stop offset="0.29" stop-color="#9e9e9e"/><stop offset="0.38" stop-color="#aaa"/><stop offset="0.56" stop-color="#cacaca"/><stop offset="0.69" stop-color="#e6e6e6"/><stop offset="0.74" stop-color="#ececec"/><stop offset="0.87" stop-color="#f9f9f9"/><stop offset="1" stop-color="#fdfdfd"/></linearGradient></defs><g class="cls-1"><g id="Layer_2" data-name="Layer 2"><g id="Layer_1-2" data-name="Layer 1"><path class="cls-2" d="M116.94,0A117,117,0,0,0,90.86,231c-10.64-9.1-16.36-23.16-16.36-41.44V160.67H61.31V96.17H74.5V68h72.11V96.17h26v64.5h-26v14.62c.63-.24,1.29-.53,2-.85l23.59-11.28V220A117,117,0,0,0,116.94,0Z"/><path class="cls-3" d="M91,189.52V144.19H77.79V112.66H91V84.43h39.15v28.23h26v31.53h-26v37.7c0,7.83,3.5,11.13,10.71,11.13a34.28,34.28,0,0,0,14.84-3.71V220c-7,3.92-16.28,6.39-27.2,6.39C105,226.4,91,216.1,91,189.52Z"/><path class="cls-4" d="M197.82,66.46a21.07,21.07,0,1,1-21.11-21A21.07,21.07,0,0,1,197.82,66.46Z"/><path class="cls-2" d="M159.2,64.67a23.21,23.21,0,0,0-1.77,5.58c-.3,1.6-.22,2.22,1,4,2.36,3.36,3.24,4.28,4.05,4.14s4.61-1,5.72-1.23c.84-.21.84-.41,1.17-1.87s.87-3.5,1-4.63,0-1.08-1-2.31S166.07,64,165.6,63.4s-.71-.41-1.82-.23-2.79.61-3.6.82S159.37,64.4,159.2,64.67Z"/><path class="cls-2" d="M160.83,53.24a32,32,0,0,0-2,3c-.52.94-.36,2.3,0,4.93s.57,2.62,1.56,2.41l4.47-1c.72-.15,1.29-1.41,2-2.52a60.17,60.17,0,0,1,3.9-5.13c.52-.46.37-.92.21-2.14s-.52-3.75-.85-3.84-2.9-.09-3.87-.15S162.79,50.77,160.83,53.24Z"/><path class="cls-2" d="M170.72,70.74s-1,4.09-1.35,5.67c-.17.92-.21,1.13,1.7,2.4s2.86,2,3.47,2.36,1.16.34,2.93-.07A37.26,37.26,0,0,0,181.71,80c.72-.31,1.84-2.78,2.34-4.43s.92-3,.2-3.57a34.51,34.51,0,0,0-2.72-2.26c-1.16-.79-2.15-1.82-2.59-1.61s-5,1.35-6.77,1.83C171.33,70.18,170.78,70.39,170.72,70.74Z"/><path class="cls-2" d="M174.29,86.92s.83-3.49,1-4.34.43-.88,1.64-1.09a49.75,49.75,0,0,0,5-1.36c.57-.2.92-.31,1.89.44s3.15,2.36,3.89,2.87c.54.37-1.95,2.17-5.19,3.06C178.72,87.52,174.26,87.49,174.29,86.92Z"/><path class="cls-2" d="M171.39,54.06s-.44-2.52-.61-3.91,0-1.22,1.81-2a38.89,38.89,0,0,1,7.07-1.84c.92-.09,2,.2,4.36,1.37S187,49.27,187.09,50s.41,3.87.45,5.34c0,1-.39.9-2.11,1.61s-3.46,1.44-3.87,1.68c-.57.24-1.51-.33-3.07-1.33a28.26,28.26,0,0,0-5.43-2.48C171.85,54.42,171.53,54.65,171.39,54.06Z"/><path class="cls-2" d="M181.2,59.72s-.87,4-1.28,6-.29,2.22.88,3.1,2.49,2.14,3.2,2.68,1.17,1.18,3.41.54c2.82-.8,3.57-1,4.44-1.31s1-.63,1.37-2.22.57-4,.74-5.29-.09-1.51-1.13-2.55-3-2.72-3.74-3.48a1.77,1.77,0,0,0-2.21-.5c-.91.34-3.4,1.27-4.31,1.77S181.32,59,181.2,59.72Z"/><path class="cls-2" d="M196.35,61.22s-1.36.45-1.77.65-.36,1.54-.52,2.91a47.9,47.9,0,0,1-1,5.17c-.19.56.58,1,1.22,2.07,1,1.62,1.53,2.51,1.75,2.2s1.66-3.47,1.59-8.7C197.46,63.18,197,60.83,196.35,61.22Z"/><path class="cls-2" d="M156.81,72.82s.2-.58.38-.28A39.26,39.26,0,0,0,161,77.86a2,2,0,0,1,.8,1.73c.07,1,0,1.27-.65.67A21.57,21.57,0,0,1,156.81,72.82Z"/><path class="cls-2" d="M181.05,45.9s-.3-.1-.42,0,.57.32,1.78.85a28.42,28.42,0,0,1,3.89,2c.55.32.77.39,1.24.19s.62-.27.08-.57A24.46,24.46,0,0,0,181.05,45.9Z"/><path class="cls-5" d="M180.53,80.75s-2.63.64-4.31,1c-1.11.14-1,2-1.46,4.06,0,0,.67-2.37,1-3.23S177.47,82,180.53,80.75Z"/><path class="cls-6" d="M161.87,52.36a26.66,26.66,0,0,1,3.37-3c1-.54,4.66-.18,4.66-.18s-2.58.09-3.8.16S161.87,52.36,161.87,52.36Z"/><path class="cls-2" d="M175.08,47.59A38.17,38.17,0,0,1,180,46.46c1.15-.05,3.47.92,6,2.38-2.85-1.26-5-2.09-5.84-2.08S175.08,47.59,175.08,47.59Z"/><path class="cls-2" d="M161.18,64.08a27,27,0,0,1,3.82-.76c.5.08,4.41,5.44,4.41,5.44S166,64.57,165,64.07,161.18,64.08,161.18,64.08Z"/><path class="cls-7" d="M190.38,58.55s2.26,2.12,2.93,2.79.62.7.05,5.59c.26-3.11.42-4.41-.17-5.2S190.38,58.55,190.38,58.55Z"/><path class="cls-6" d="M169.89,72.67s-.53,2.43-.83,3.52-1.32,1-4,1.5c2.8-.85,3.49-1,3.74-1.69Z"/><path class="cls-6" d="M169.94,74.37s.57-2.4.78-3.36,2.12-1.05,4-1.56c0,0-1.79.59-2.95,1S170.64,72.52,169.94,74.37Z"/><path class="cls-2" d="M171.05,78.61s2.09,1.49,3,2.11,1.43.67,3.83.15a24.72,24.72,0,0,0,3.06-.78,39.27,39.27,0,0,1-5.1.78C174.11,80.93,171.05,78.61,171.05,78.61Z"/><path class="cls-6" d="M180,66.31s.95-5.18,1.25-6.4,2.46-1.88,4.72-2.8c0,0-2.56,1.33-3.57,2S181.53,60.52,180,66.31Z"/><path class="cls-6" d="M182.13,70.48s1.52,1.24,2,1.7.5,1.61-1,5.26c.65-2.45,1.55-4.52.64-5.35S182.13,70.48,182.13,70.48Z"/><path class="cls-6" d="M158.71,75.16s1.21,1.65,2.06,2.59c.73.76.88.89.89,2.44a3,3,0,0,0-.72-2C160.46,77.7,158.71,75.16,158.71,75.16Z"/><path class="cls-8" d="M176.71,45.43a21.07,21.07,0,1,0,21.11,21A21.07,21.07,0,0,0,176.71,45.43Zm-.16,37.77c-10.63,0-19.25-8.15-19.27-18.24s8.58-18.3,19.2-18.31,19.24,8.15,19.26,18.24S187.16,83.19,176.55,83.2Z"/><path class="cls-9" d="M173.48,56.24a2.14,2.14,0,0,1-3.18,2.69,2.14,2.14,0,0,1,3.18-2.69Z"/><path class="cls-9" d="M169.67,60a.95.95,0,1,1-1.18,0A.85.85,0,0,1,169.67,60Z"/></g></g></g></svg>